<svg xmlns="http://www.w3.org/2000/svg" viewBox="0 0 512 512">
  <rect x="16" y="16" width="480" height="480" rx="108" fill="#245849"/>
  <path d="M178 130c0-22 18-40 40-40h76c22 0 40 18 40 40v18h-28v-18c0-7-5-12-12-12h-76c-7 0-12 5-12 12v18h-28z" fill="#d5e7dd"/>
  <path d="M126 180h260l-22 232c-2 21-20 36-41 36H189c-21 0-39-15-41-36z" fill="#f6faf7"/>
  <path d="M202 258l40 40 70-78 24 22-94 104-64-64z" fill="#2f7a62"/>
  <circle cx="196" cy="202" r="10" fill="#245849"/>
  <circle cx="316" cy="202" r="10" fill="#245849"/>
</svg>
