<svg xmlns="http://www.w3.org/2000/svg" viewBox="0 0 512 512">
  <rect x="16" y="16" width="480" height="480" rx="108" fill="#245849"/>
  <rect x="96" y="240" width="206" height="108" rx="18" fill="#f6faf7"/>
  <rect x="302" y="268" width="96" height="80" rx="14" fill="#dcece4"/>
  <circle cx="156" cy="366" r="28" fill="#1f4e40"/>
  <circle cx="338" cy="366" r="28" fill="#1f4e40"/>
  <path d="M372 176c18 10 30 28 30 48-20-4-37-16-47-32 0-12 6-22 17-28z" fill="#f1d06f"/>
  <path d="M336 150c18 10 30 28 30 48-20-4-37-16-47-32 0-12 6-22 17-28z" fill="#f1d06f"/>
</svg>
